# xmcd
#
# Track frame offsets:
#	150
#	13582
#	32627
#	44495
#	58115
#	70479
#	83615
#	98669
#	109634
#	135383
#	147724
#	159510
#	174262
#	189698
#	204299
#	219247
#	236029
#	252196
#	273735
#
# Disc length: 3853 seconds
#
# Revision: 1
# Processed by: cddbd v1.5.1PL2 Copyright (c) Steve Scherf et al.
# Submitted via: audiograbber 1.81.02
#
DISCID=0d0f0b13
DTITLE=Cesar Menotti e Fabiano - Palavras de Amor Ao Vivo
DYEAR=2005
DGENRE=Sertanejo
TTITLE0=Como Um Anjo
TTITLE1=Tentei Te Esquecer - Coração em Pedaços
TTITLE2=Fica Comigo
TTITLE3=Sem Medo de Ser Feliz
TTITLE4=Mensagem Pra Ela
TTITLE5=Esperando Na Janela
TTITLE6=Leilão
TTITLE7=Aqui Não
TTITLE8=Lugar Melhor Que BH - Magia e Mistério
TTITLE9=Bão Tamém
TTITLE10=Sempre Seu Homem
TTITLE11=Paixão Mineira
TTITLE12=Amargurado
TTITLE13=Na Hora do Adeus
TTITLE14=Caso Marcado
TTITLE15=Nova York - O Que Tiver Que Vir, Virá
TTITLE16=Me Apaixonei
TTITLE17=Cana Verde - Erguei as Mãos
TTITLE18=a
EXTD=
EXTT0=
EXTT1=
EXTT2=
EXTT3=
EXTT4=
EXTT5=
EXTT6=
EXTT7=
EXTT8=
EXTT9=
EXTT10=
EXTT11=
EXTT12=
EXTT13=
EXTT14=
EXTT15=
EXTT16=
EXTT17=
EXTT18=
PLAYORDER=
